<svg width="62" height="62" viewBox="0 0 62 62" fill="none" xmlns="http://www.w3.org/2000/svg">
<path d="M36.9782 13.5C39.827 14.0559 42.4451 15.4491 44.4975 17.5015C46.5499 19.5539 47.9432 22.1721 48.499 25.0209M36.9782 1.83337C42.8969 2.4909 48.4161 5.14138 52.6297 9.34965C56.8433 13.5579 59.5007 19.0738 60.1657 24.9917M25.8277 36.434C22.3231 32.9294 19.5558 28.9667 17.5258 24.7386C17.3512 24.3749 17.2639 24.1931 17.1968 23.963C16.9584 23.1453 17.1296 22.1412 17.6255 21.4487C17.7651 21.2539 17.9318 21.0871 18.2652 20.7537C19.2849 19.734 19.7947 19.2242 20.128 18.7115C21.3851 16.7781 21.3851 14.2856 20.128 12.3521C19.7947 11.8394 19.2849 11.3296 18.2652 10.3099L17.6968 9.74155C16.1468 8.19151 15.3717 7.41649 14.5394 6.99549C12.884 6.1582 10.929 6.1582 9.27366 6.99549C8.4413 7.41649 7.66628 8.19151 6.11624 9.74155L5.65647 10.2013C4.11174 11.7461 3.33937 12.5184 2.74948 13.5685C2.09492 14.7337 1.62428 16.5435 1.62826 17.88C1.63184 19.0844 1.86548 19.9076 2.33275 21.5539C4.84391 30.4013 9.58196 38.7498 16.5469 45.7148C23.5118 52.6797 31.8604 57.4178 40.7078 59.9289C42.3541 60.3962 43.1773 60.6298 44.3817 60.6334C45.7182 60.6374 47.5279 60.1668 48.6932 59.5122C49.7433 58.9223 50.5156 58.1499 52.0604 56.6052L52.5201 56.1454C54.0702 54.5954 54.8452 53.8204 55.2662 52.988C56.1035 51.3326 56.1035 49.3777 55.2662 47.7223C54.8452 46.8899 54.0702 46.1149 52.5201 44.5649L51.9518 43.9965C50.9321 42.9768 50.4222 42.467 49.9095 42.1336C47.9761 40.8766 45.4836 40.8766 43.5502 42.1336C43.0375 42.467 42.5276 42.9768 41.5079 43.9965C41.1745 44.3299 41.0078 44.4966 40.813 44.6362C40.1205 45.132 39.1164 45.3032 38.2987 45.0649C38.0686 44.9978 37.8867 44.9105 37.523 44.7359C33.295 42.7059 29.3323 39.9386 25.8277 36.434Z" stroke="#022539" stroke-width="2" stroke-linecap="round" stroke-linejoin="round"/>
</svg>
