<svg width="56" height="62" viewBox="0 0 56 62" fill="none" xmlns="http://www.w3.org/2000/svg">
<path d="M19.25 49.9584H36.75M13.4167 39.75H42.5833M7.58333 1.83337H48.4167C51.6383 1.83337 54.25 4.73523 54.25 8.31486V53.6852C54.25 57.2648 51.6383 60.1667 48.4167 60.1667H7.58333C4.36167 60.1667 1.75 57.2648 1.75 53.6852V8.31485C1.75 4.73523 4.36167 1.83337 7.58333 1.83337ZM27.993 14.1182C25.952 11.8457 22.5485 11.2344 19.9913 13.3153C17.434 15.3962 17.074 18.8754 19.0822 21.3365C21.0904 23.7976 27.993 29.5417 27.993 29.5417C27.993 29.5417 34.8956 23.7976 36.9038 21.3365C38.912 18.8754 38.596 15.3744 35.9948 13.3153C33.3936 11.2563 30.034 11.8457 27.993 14.1182Z" stroke="#022539" stroke-width="2" stroke-linecap="round" stroke-linejoin="round"/>
</svg>
