<svg width="46" height="62" viewBox="0 0 46 62" fill="none" xmlns="http://www.w3.org/2000/svg">
<path d="M10.9503 41.0915L8.41667 60.1667L21.7995 52.137C22.236 51.8751 22.4542 51.7442 22.6872 51.693C22.8933 51.6478 23.1067 51.6478 23.3128 51.693C23.5458 51.7442 23.764 51.8751 24.2005 52.137L37.5833 60.1667L35.0514 41.0833M35.9088 8.39261C36.3593 9.48204 37.2239 10.348 38.3126 10.8001L42.1302 12.3814C43.2197 12.8327 44.0853 13.6984 44.5365 14.7879C44.9878 15.8774 44.9878 17.1016 44.5365 18.1911L42.9564 22.0061C42.5049 23.0961 42.5043 24.3215 42.9578 25.4109L44.5352 29.2248C44.7589 29.7644 44.8741 30.3428 44.8742 30.927C44.8743 31.5112 44.7593 32.0896 44.5358 32.6293C44.3122 33.169 43.9845 33.6594 43.5714 34.0724C43.1583 34.4854 42.6679 34.8129 42.1281 35.0363L38.3133 36.6165C37.2239 37.067 36.358 37.9316 35.9059 39.0204L34.3246 42.8381C33.8733 43.9276 33.0077 44.7932 31.9182 45.2445C30.8288 45.6958 29.6046 45.6958 28.5152 45.2445L24.7003 43.6643C23.6108 43.2141 22.3871 43.2151 21.2983 43.6669L17.4807 45.246C16.3918 45.6962 15.1688 45.6958 14.0802 45.2449C12.9916 44.794 12.1265 43.9294 11.6749 42.841L10.0931 39.0222C9.64269 37.9327 8.77807 37.0668 7.68935 36.6147L3.87177 35.0333C2.78276 34.5822 1.91744 33.7172 1.46599 32.6283C1.01455 31.5394 1.01394 30.3158 1.46429 29.2264L3.04445 25.4115C3.49462 24.3219 3.4937 23.0982 3.0419 22.0093L1.464 18.1888C1.24029 17.6492 1.12509 17.0708 1.125 16.4866C1.12491 15.9025 1.23992 15.324 1.46346 14.7843C1.687 14.2446 2.01469 13.7543 2.4278 13.3413C2.84092 12.9283 3.33136 12.6007 3.87111 12.3774L7.68596 10.7971C8.7744 10.3471 9.63981 9.4835 10.0922 8.396L11.6735 4.57827C12.1248 3.48875 12.9904 2.62314 14.0799 2.17184C15.1693 1.72055 16.3935 1.72055 17.4829 2.17184L21.2978 3.75206C22.3873 4.20225 23.611 4.20133 24.6998 3.74951L28.519 2.17429C29.6083 1.72325 30.8322 1.72335 31.9215 2.17455C33.0107 2.62575 33.8762 3.49112 34.3275 4.58036L35.9093 8.39922L35.9088 8.39261Z" stroke="#FB991C" stroke-width="2" stroke-linecap="round" stroke-linejoin="round"/>
</svg>
