<svg width="70" height="70" viewBox="0 0 70 70" fill="none" xmlns="http://www.w3.org/2000/svg">
<path d="M22.9503 45.0915L20.4167 64.1667L33.7995 56.137C34.236 55.8751 34.4542 55.7442 34.6872 55.693C34.8933 55.6478 35.1067 55.6478 35.3128 55.693C35.5458 55.7442 35.764 55.8751 36.2005 56.137L49.5833 64.1667L47.0514 45.0833M47.9088 12.3926C48.3593 13.482 49.2239 14.348 50.3126 14.8001L54.1302 16.3814C55.2197 16.8327 56.0853 17.6984 56.5365 18.7879C56.9878 19.8774 56.9878 21.1016 56.5365 22.1911L54.9564 26.0061C54.5049 27.0961 54.5043 28.3215 54.9578 29.4109L56.5352 33.2248C56.7589 33.7644 56.8741 34.3428 56.8742 34.927C56.8743 35.5112 56.7593 36.0896 56.5358 36.6293C56.3122 37.169 55.9845 37.6594 55.5714 38.0724C55.1583 38.4854 54.6679 38.8129 54.1281 39.0363L50.3133 40.6165C49.2239 41.067 48.358 41.9316 47.9059 43.0204L46.3246 46.8381C45.8733 47.9276 45.0077 48.7932 43.9182 49.2445C42.8288 49.6958 41.6046 49.6958 40.5152 49.2445L36.7003 47.6643C35.6108 47.2141 34.3871 47.2151 33.2983 47.6669L29.4807 49.246C28.3918 49.6962 27.1688 49.6958 26.0802 49.2449C24.9916 48.794 24.1265 47.9294 23.6749 46.841L22.0931 43.0222C21.6427 41.9327 20.7781 41.0668 19.6894 40.6147L15.8718 39.0333C14.7828 38.5822 13.9174 37.7172 13.466 36.6283C13.0145 35.5394 13.0139 34.3158 13.4643 33.2264L15.0445 29.4115C15.4946 28.3219 15.4937 27.0982 15.0419 26.0093L13.464 22.1888C13.2403 21.6492 13.1251 21.0708 13.125 20.4866C13.1249 19.9025 13.2399 19.324 13.4635 18.7843C13.687 18.2446 14.0147 17.7543 14.4278 17.3413C14.8409 16.9283 15.3314 16.6007 15.8711 16.3774L19.686 14.7971C20.7744 14.3471 21.6398 13.4835 22.0922 12.396L23.6735 8.57827C24.1248 7.48875 24.9904 6.62314 26.0799 6.17184C27.1693 5.72055 28.3935 5.72055 29.4829 6.17184L33.2978 7.75206C34.3873 8.20225 35.611 8.20133 36.6998 7.74951L40.519 6.17429C41.6083 5.72325 42.8322 5.72335 43.9215 6.17455C45.0107 6.62575 45.8762 7.49112 46.3275 8.58036L47.9093 12.3992L47.9088 12.3926Z" stroke="#022539" stroke-width="2" stroke-linecap="round" stroke-linejoin="round"/>
</svg>
