<svg width="58" height="62" viewBox="0 0 58 62" fill="none" xmlns="http://www.w3.org/2000/svg">
<path d="M14.8105 28.6344L3.71336 8.77643C2.43736 6.49306 1.79935 5.35137 1.90687 4.41662C2.00068 3.60108 2.43383 2.86283 3.09999 2.3831C3.86352 1.83325 5.17138 1.83325 7.78709 1.83325H14.3053C15.2774 1.83325 15.7635 1.83325 16.1995 1.97364C16.5852 2.09787 16.9409 2.30113 17.2438 2.57047C17.586 2.87485 17.8327 3.29364 18.3261 4.13122L29 22.2499L39.6739 4.13122C40.1673 3.29364 40.414 2.87485 40.7562 2.57047C41.0591 2.30113 41.4148 2.09787 41.8005 1.97364C42.2365 1.83325 42.7226 1.83325 43.6947 1.83325H50.2129C52.8286 1.83325 54.1365 1.83325 54.9 2.3831C55.5662 2.86283 55.9993 3.60108 56.0931 4.41662C56.2007 5.35137 55.5627 6.49306 54.2866 8.77643L43.1895 28.6344M24.625 36.8333L29 33.9166V48.4999M25.3542 48.4999H32.6458M42.4056 27.8027C49.8093 35.2063 49.8093 47.2101 42.4056 54.6138C35.0019 62.0175 22.9981 62.0175 15.5944 54.6138C8.19075 47.2102 8.19075 35.2064 15.5944 27.8027C22.9981 20.399 35.0019 20.399 42.4056 27.8027Z" stroke="#022539" stroke-width="2" stroke-linecap="round" stroke-linejoin="round"/>
</svg>
