<svg width="61" height="56" viewBox="0 0 61 56" fill="none" xmlns="http://www.w3.org/2000/svg">
<path d="M48.5 39.1909C52.7464 41.3241 56.3871 44.7474 59.0445 49.0281C59.5707 49.8758 59.8338 50.2996 59.9248 50.8866C60.1097 52.0793 59.294 53.5457 58.1832 54.0177C57.6365 54.25 57.0216 54.25 55.7917 54.25M42.6667 26.6357C46.9884 24.488 49.9583 20.0283 49.9583 14.875C49.9583 9.72166 46.9884 5.26199 42.6667 3.1143M36.8333 14.875C36.8333 22.1237 30.9571 28 23.7083 28C16.4596 28 10.5833 22.1237 10.5833 14.875C10.5833 7.62626 16.4596 1.75 23.7083 1.75C30.9571 1.75 36.8333 7.62626 36.8333 14.875ZM3.46443 48.2368C8.1145 41.2549 15.4523 36.75 23.7083 36.75C31.9643 36.75 39.3022 41.2549 43.9523 48.2368C44.971 49.7664 45.4803 50.5311 45.4217 51.5081C45.376 52.2688 44.8774 53.2 44.2696 53.6596C43.489 54.25 42.4153 54.25 40.2681 54.25H7.14855C5.00134 54.25 3.92774 54.25 3.14713 53.6596C2.53932 53.2 2.04069 52.2688 1.99503 51.5081C1.93639 50.5311 2.44574 49.7664 3.46443 48.2368Z" stroke="#022539" stroke-width="2" stroke-linecap="round" stroke-linejoin="round"/>
</svg>
