<svg width="62" height="61" viewBox="0 0 62 61" fill="none" xmlns="http://www.w3.org/2000/svg">
<path d="M13.5 53.5876H21.1133C22.106 53.5876 23.0926 53.7058 24.0548 53.942L32.0992 55.8968C33.8447 56.3221 35.6631 56.3634 37.4268 56.0209L46.3212 54.2904C48.6707 53.8327 50.8321 52.7076 52.526 51.0599L58.8188 44.9384C60.6159 43.1932 60.6159 40.3614 58.8188 38.6132C57.2008 37.0393 54.6388 36.8621 52.8083 38.1968L45.4742 43.5476C44.4239 44.3154 43.1459 44.7288 41.8315 44.7288H34.7494L39.2573 44.7286C41.7981 44.7286 43.8562 42.7265 43.8562 40.2549V39.3601C43.8562 37.3078 42.4204 35.5183 40.3744 35.0222L33.4167 33.3302C32.2844 33.0556 31.1248 32.9168 29.9591 32.9168C27.1451 32.9168 22.0513 35.2466 22.0513 35.2466L13.5 38.8227M1.83331 37.5834L1.83331 54.5001C1.83331 56.1336 1.83331 56.9503 2.15121 57.5742C2.43084 58.123 2.87703 58.5692 3.42584 58.8489C4.04975 59.1668 4.86649 59.1668 6.49998 59.1668H8.83331C10.4668 59.1668 11.2835 59.1668 11.9075 58.8489C12.4563 58.5692 12.9025 58.123 13.1821 57.5742C13.5 56.9503 13.5 56.1336 13.5 54.5001V37.5834C13.5 35.95 13.5 35.1332 13.1821 34.5093C12.9025 33.9605 12.4563 33.5143 11.9075 33.2347C11.2835 32.9168 10.4668 32.9168 8.83331 32.9168H6.49998C4.86649 32.9168 4.04975 32.9168 3.42584 33.2347C2.87704 33.5143 2.43084 33.9605 2.15121 34.5093C1.83331 35.1332 1.83331 35.9499 1.83331 37.5834ZM46.1415 5.47751C44.4008 1.83501 40.3875 -0.0946935 36.4846 1.76785C32.5816 3.6304 30.9189 8.04746 32.553 11.925C33.5629 14.3214 36.4563 18.9751 38.5194 22.1806C39.2817 23.365 39.6628 23.9572 40.2195 24.3036C40.6971 24.6008 41.2948 24.761 41.8569 24.7424C42.5123 24.7207 43.1385 24.3984 44.3908 23.7539C47.7803 22.0093 52.6129 19.4259 54.6857 17.8555C58.0396 15.3144 58.8704 10.6439 56.3594 7.0933C53.8484 3.54274 49.4702 3.19337 46.1415 5.47751Z" stroke="#022539" stroke-width="2" stroke-linecap="round" stroke-linejoin="round"/>
</svg>
