<svg width="214" height="43" viewBox="0 0 214 43" fill="none" xmlns="http://www.w3.org/2000/svg">
<circle cx="18.5" cy="21.5" r="16.9143" stroke="#FB991C" stroke-width="3.17143"/>
<path d="M19.6913 15.3687V30.4H16.6046V15.3687H19.6913ZM24.3163 15.3687V17.7948H12.0518V15.3687H24.3163Z" fill="#FB991C"/>
<path d="M48.81 21.8H63.21V19.4H48.81V21.8ZM61.5 11V32H64.05V11H61.5ZM47.4 11V32H49.95V11H47.4ZM70.8553 25.7H81.9553L81.0553 23.3H71.7553L70.8553 25.7ZM76.3453 15.74L79.9453 24.2L80.1853 24.8L83.2453 32H86.0953L76.3453 9.95L66.5953 32H69.4453L72.5653 24.62L72.8053 24.08L76.3453 15.74ZM104.55 11V26.63L88.65 9.95V32H91.2V16.37L107.1 33.05V11H104.55ZM111.912 11V32H114.462V11H111.912ZM118.212 32C120.252 32 122.062 31.56 123.642 30.68C125.222 29.8 126.462 28.58 127.362 27.02C128.262 25.44 128.712 23.6 128.712 21.5C128.712 19.4 128.262 17.57 127.362 16.01C126.462 14.43 125.222 13.2 123.642 12.32C122.062 11.44 120.252 11 118.212 11H113.322V13.55H118.212C119.392 13.55 120.472 13.74 121.452 14.12C122.432 14.48 123.272 15.01 123.972 15.71C124.672 16.39 125.212 17.22 125.592 18.2C125.972 19.18 126.162 20.28 126.162 21.5C126.162 22.72 125.972 23.82 125.592 24.8C125.212 25.78 124.672 26.62 123.972 27.32C123.272 28 122.432 28.53 121.452 28.91C120.472 29.27 119.392 29.45 118.212 29.45H113.322V32H118.212ZM142.824 11L137.394 20.72L131.994 11H129.144L136.134 22.97V32H138.684V22.94L145.674 11H142.824ZM151.121 17.81L157.961 30.05L164.801 17.81L166.361 32H168.911L166.361 9.95L157.961 25.16L149.561 9.95L147.011 32H149.561L151.121 17.81ZM174.508 25.7H185.608L184.708 23.3H175.408L174.508 25.7ZM179.998 15.74L183.598 24.2L183.838 24.8L186.898 32H189.748L179.998 9.95L170.248 32H173.098L176.218 24.62L176.458 24.08L179.998 15.74ZM208.202 11V26.63L192.302 9.95V32H194.852V16.37L210.752 33.05V11H208.202Z" fill="white"/>
</svg>
